<?xml version="1.0" encoding="UTF-8" standalone="no"?>
<svg
   xmlns:dc="http://purl.org/dc/elements/1.1/"
   xmlns:cc="http://creativecommons.org/ns#"
   xmlns:rdf="http://www.w3.org/1999/02/22-rdf-syntax-ns#"
   xmlns:svg="http://www.w3.org/2000/svg"
   xmlns="http://www.w3.org/2000/svg"
   xmlns:sodipodi="http://sodipodi.sourceforge.net/DTD/sodipodi-0.dtd"
   xmlns:inkscape="http://www.inkscape.org/namespaces/inkscape"
   version="1.1"
   id="svg24"
   width="595.5"
   height="276"
   viewBox="0 0 595.5 276"
   sodipodi:docname="tensorrt-logo-svg.svg"
   inkscape:version="1.0.2-2 (e86c870879, 2021-01-15)">
  <metadata
     id="metadata30">
    <rdf:RDF>
      <cc:Work
         rdf:about="">
        <dc:format>image/svg+xml</dc:format>
        <dc:type
           rdf:resource="http://purl.org/dc/dcmitype/StillImage" />
        <dc:title></dc:title>
      </cc:Work>
    </rdf:RDF>
  </metadata>
  <defs
     id="defs28" />
  <sodipodi:namedview
     pagecolor="#ffffff"
     bordercolor="#666666"
     borderopacity="1"
     objecttolerance="10"
     gridtolerance="10"
     guidetolerance="10"
     inkscape:pageopacity="0"
     inkscape:pageshadow="2"
     inkscape:window-width="1920"
     inkscape:window-height="1057"
     id="namedview26"
     showgrid="false"
     inkscape:zoom="1.7665827"
     inkscape:cx="275.45418"
     inkscape:cy="138"
     inkscape:window-x="-8"
     inkscape:window-y="-8"
     inkscape:window-maximized="1"
     inkscape:current-layer="g32" />
  <g
     inkscape:groupmode="layer"
     inkscape:label="Image"
     id="g32">
    <g
       id="g36"
       transform="translate(2.2642617,3.3963926)"
       inkscape:export-xdpi="96"
       inkscape:export-ydpi="96">
      <path
         style="fill:#d2e7ac;stroke-width:0.5"
         d="m 296.125,262.15533 0.875,-0.22866 0.875,0.22866 0.875,0.22867 H 297 295.25 Z m 11.00952,-0.002 0.88451,-0.23049 0.61549,0.24902 0.61548,0.24902 -1.5,-0.0186 -1.5,-0.0186 0.88452,-0.23049 z m -17.72827,-0.49506 0.65625,-0.26261 0.30208,0.30208 0.30208,0.30209 -0.95833,-0.0394 -0.95833,-0.0394 0.65625,-0.26261 z M 386,230.81122 v -0.18878 l 0.875,-0.68622 0.875,-0.68622 -0.68622,0.875 -0.68622,0.875 H 386.18878 386 Z M 216.70249,229.375 215.75,228.25 l 1.125,0.95249 1.125,0.9525 v 0.1725 0.17251 h -0.17251 -0.1725 z m -9.24034,-9.25 -1.21215,-1.375 1.375,1.21215 1.375,1.21216 v 0.16284 0.16285 h -0.16285 -0.16284 z M 397.25,219.5 l 0.90499,-1 h 0.25 0.25 l -0.90499,1 -0.90499,1 h -0.25 -0.25 z m -168.84375,-67.84156 0.65625,-0.26261 0.30208,0.30208 0.30208,0.30209 -0.95833,-0.0395 -0.95833,-0.0394 0.65625,-0.26261 z m 4,0 0.65625,-0.26261 0.30208,0.30208 0.30208,0.30209 -0.95833,-0.0395 -0.95833,-0.0394 0.65625,-0.26261 z m 49.46875,0.0104 0.625,-0.25219 0.625,0.25219 0.625,0.2522 h -1.25 -1.25 z m 5.03125,-0.0104 0.65625,-0.26261 0.30208,0.30208 0.30208,0.30209 -0.95833,-0.0395 -0.95833,-0.0394 0.65625,-0.26261 z M 263.20563,143 v -8.75 l 0.16665,4.375 0.16665,4.375 -0.16665,4.375 -0.16665,4.375 z m -41.74348,5.625 -1.21215,-1.375 1.375,1.21215 1.375,1.21216 V 149.83715 150 h -0.16285 -0.16284 z M 294,149.31122 v -0.18878 l 0.875,-0.68622 0.875,-0.68622 -0.68622,0.875 -0.68622,0.875 H 294.18878 294 Z M 239.70249,146.375 238.75,145.25 l 1.125,0.95249 1.125,0.9525 v 0.1725 0.17251 h -0.17251 -0.1725 z m -9.29624,-0.21656 0.65625,-0.26261 0.30208,0.30208 0.30208,0.30209 -0.95833,-0.0395 -0.95833,-0.0394 0.65625,-0.26261 z m 198.63323,-0.95011 0.0394,-0.95833 0.26261,0.65625 0.26261,0.65625 -0.30208,0.30208 -0.30209,0.30208 0.0394,-0.95833 z M 226.20249,144.375 225.25,143.25 l 1.125,0.95249 1.125,0.9525 v 0.1725 0.17251 h -0.17251 -0.1725 z m -51.16302,-0.16667 0.0395,-0.95833 0.26261,0.65625 0.26261,0.65625 -0.30208,0.30208 -0.30208,0.30208 0.0395,-0.95833 z M 235.5,144.81122 v -0.18878 l 0.875,-0.68622 0.875,-0.68622 -0.68622,0.875 -0.68623,0.875 H 235.68878 235.5 Z m -17.34507,-6.56122 0.005,-3 0.20233,1.63395 0.20233,1.63396 -0.20743,1.36604 -0.20743,1.36605 0.005,-3 z m 23.4949,-0.75 v -2.75 l 0.20829,1.375 0.2083,1.375 -0.2083,1.375 -0.20829,1.375 z m 58.98635,0.5 v -2.25 l 0.21668,1.125 0.21669,1.125 -0.21669,1.125 -0.21668,1.125 z m 60.98882,-1.35813 1.375,-0.20829 1.375,0.20829 1.375,0.2083 H 363 360.25 Z m -76.71875,-1.98343 0.65625,-0.26261 0.30208,0.30208 0.30208,0.30209 -0.95833,-0.0395 -0.95833,-0.0394 0.65625,-0.26261 z m -9.86678,-1.95011 0.0394,-0.95833 0.26261,0.65625 0.26261,0.65625 -0.30208,0.30208 -0.30208,0.30208 0.0394,-0.95833 z m 6.5,-0.5 0.0394,-0.95833 0.26261,0.65625 0.26261,0.65625 -0.30208,0.30208 -0.30208,0.30208 0.0394,-0.95833 z m 62.15987,-0.83333 -0.35967,-0.625 0.42639,0.38789 0.42639,0.38789 2.77877,-2.63789 2.77878,-2.63789 -2.73292,2.875 -2.73292,2.875 h -0.11257 -0.11257 z m -52.14999,0 0.216,-0.125 2.24232,-2 2.24233,-2 -1.97648,2.125 -1.97647,2.125 h -0.48185 -0.48186 z m 70.83886,-0.74175 2.13822,-0.19204 1.86178,0.19535 1.86179,0.19533 -4,-0.003 -4,-0.004 2.13821,-0.19204 z M 221,127.81122 v -0.18877 l 0.875,-0.68623 0.875,-0.68622 -0.68622,0.875 -0.68623,0.875 H 221.18878 221 Z m 16.93622,-0.68622 -0.68622,-0.875 0.875,0.68622 0.875,0.68623 V 127.81122 128 h -0.18878 -0.18878 z m -62.89675,-1.41666 0.0395,-0.95834 0.26261,0.65625 0.26261,0.65625 -0.30208,0.30209 -0.30208,0.30208 0.0395,-0.95833 z m 254,-1 0.0394,-0.95834 0.26261,0.65625 0.26261,0.65625 -0.30208,0.30209 -0.30208,0.30208 0.0394,-0.95833 z m -145.63322,-0.54989 0.65625,-0.26261 0.30208,0.30208 0.30208,0.30208 -0.95833,-0.0395 -0.95833,-0.0395 0.65625,-0.26261 z m 4.5,0 0.65625,-0.26261 0.30208,0.30208 0.30208,0.30208 -0.95833,-0.0395 -0.95833,-0.0395 0.65625,-0.26261 z m 22,0 0.65625,-0.26261 0.30208,0.30208 0.30208,0.30208 -0.95833,-0.0395 -0.95833,-0.0395 0.65625,-0.26261 z m 100.25782,-6.40845 0.004,-3.5 0.19679,1.88615 0.1968,1.88616 -0.20083,1.61384 -0.20083,1.61385 0.004,-3.5 z M 397.20249,50.375 396.25,49.25 l 1.125,0.952495 1.125,0.952495 V 51.327495 51.5 h -0.17251 -0.1725 z M 207.5,49.75 208.67431,48.5 h 0.25 0.25 L 208,49.75 206.82568,51 h -0.25 -0.25 z m 9.25,-9.25 0.90499,-1 h 0.25 0.25 l -0.90499,1 -0.90499,1 h -0.25 -0.25 z M 386.43622,39.625 385.75,38.75 l 0.875,0.686222 0.875,0.686222 V 40.311222 40.5 h -0.18878 -0.18878 z M 289.40625,8.158443 290.0625,7.8958335 290.36458,8.1979165 290.66666,8.5 289.70833,8.460525 288.75,8.42105 289.40625,8.1584405 Z M 296.125,7.655337 297,7.426676 l 0.875,0.228661 0.875,0.2286615 H 297 295.25 Z m 11.00952,-0.00185 0.88451,-0.230494 0.61549,0.249021 0.61548,0.249021 -1.5,-0.018525 -1.5,-0.018525 0.88452,-0.230494 z"
         id="path50" />
      <path
         style="fill:#bababa;stroke-width:0.5"
         d="m 111.2025,256.375 -0.9525,-1.125 1.125,0.95249 1.125,0.9525 v 0.1725 0.17251 h -0.1725 -0.17251 z M 122.57895,252 v -1.25 l 0.25219,0.625 0.2522,0.625 -0.2522,0.625 -0.25219,0.625 z m -2.14273,-4.875 -0.68622,-0.875 0.875,0.68622 0.875,0.68622 V 247.81122 248 h -0.18878 -0.18877 z m -1.71552,-15.375 4.3e-4,-14.5 0.15298,7.40558 0.15298,7.40559 -0.15341,7.09441 -0.15342,7.09442 z m 0.005,-37.25 v -17.75 l 0.14884,8.875 0.14883,8.875 -0.14883,8.875 -0.14884,8.875 z M 427.125,211.62544 439,211.4819 l 11.875,0.14354 11.875,0.14354 H 439 415.25 Z M 463,210.31122 v -0.18878 l 0.875,-0.68622 0.875,-0.68622 -0.68622,0.875 -0.68622,0.875 H 463.18878 463 Z M 566.4362,179.125 565.75,178.25 l 0.875,0.68622 0.875,0.68622 V 179.81122 180 h -0.1888 -0.18875 z m 11.16125,-4.875 0.0185,-1.5 0.2305,0.88451 0.2305,0.88452 -0.24905,0.61548 -0.249,0.61549 0.0185,-1.5 z m -110.97245,-2.62494 32.875,-0.13225 32.875,0.13225 32.875,0.13225 H 499.5 433.75 Z m 109.0775,-1.75006 -0.9525,-1.125 1.125,0.95249 1.125,0.9525 v 0.1725 V 171 h -0.1725 -0.1725 z m -65.7663,-30.75 -0.6862,-0.875 0.875,0.68622 0.875,0.68622 V 139.81122 140 h -0.1888 -0.18875 z m 8.5638,0.68622 v -0.18878 l 0.875,-0.68622 0.875,-0.68622 -0.6862,0.875 -0.68625,0.875 H 518.6888 518.5 Z M 91.7281,117 V 96.75 l 0.146305,10.125 0.1463,10.125 -0.1463,10.125 -0.146305,10.125 z m 418.0219,13 0.905,-1 h 0.25 0.25 l -0.905,1 -0.905,1 h -0.25 -0.25 z m 9.4525,-0.125 -0.9525,-1.125 1.125,0.95249 1.125,0.9525 v 0.1725 V 131 h -0.1725 -0.1725 z M 477.93622,99.125 477.25,98.25 478.125,98.93622 479,99.622445 V 99.81122 100 h -0.18878 -0.18878 z M 487.25,99 l 0.90499,-1 h 0.25 0.25 l -0.90499,1 -0.90499,1 h -0.25 -0.25 z M 91.71886,78.25 l -4.9e-4,-13.5 0.15512,6.595105 0.15512,6.59511 -0.154635,6.90489 L 91.719345,91.75 Z M 487.20249,89.875 486.25,88.75 l 1.125,0.952495 1.125,0.952495 V 90.827495 91 h -0.17251 -0.1725 z M 477.5,90.31122 v -0.188775 l 0.875,-0.686225 0.875,-0.68622 -0.68622,0.875 -0.68622,0.875 H 477.68878 477.5 Z M 59.93622,67.125 59.25,66.25 60.125,66.93622 61,67.622445 V 67.81122 68 h -0.18878 -0.188775 z m 17.218675,-7.498975 6.90489,-0.154635 6.59511,0.15512 6.595105,0.15512 -13.5,-4.9e-4 -13.5,-4.85e-4 z M 564,59.81122 V 59.622445 L 564.875,58.93622 565.75,58.25 565.0638,59.125 564.37755,60 H 564.1888 564 Z M 69.202495,57.875 68.25,56.75 69.375,57.702495 70.5,58.65499 V 58.827495 59 H 70.327495 70.15499 Z M 134.125,56.125185 153,55.987975 l 18.875,0.13721 18.875,0.137205 H 153 115.25 Z M 566.57895,54.5 v -1.25 l 0.2522,0.625 0.2522,0.625 -0.2522,0.625 -0.2522,0.625 z m -553.981476,-0.75 0.01853,-1.5 0.230494,0.884515 0.230494,0.884515 -0.249021,0.615485 -0.249021,0.615485 0.01853,-1.5 z m 104.537036,-29.596496 0.88452,-0.230494 0.61548,0.249021 0.61549,0.249021 -1.5,-0.01853 -1.5,-0.01853 0.88451,-0.230494 z"
         id="path48" />
      <path
         style="fill:#b2d770;stroke-width:0.5"
         d="m 300.375,262.13389 2.125,-0.19139 2.125,0.19139 2.125,0.1914 h -4.25 -4.25 z m 13.03125,-0.47545 0.65625,-0.26261 0.30208,0.30208 0.30208,0.30209 -0.95833,-0.0394 -0.95833,-0.0394 0.65625,-0.26261 z M 388.25,228.5 l 0.90499,-1 h 0.25 0.25 l -0.90499,1 -0.90499,1 h -0.25 -0.25 z m -176.01341,-3.625 -3.48659,-3.625 3.625,3.48659 3.625,3.48659 v 0.13841 0.13841 h -0.13841 -0.13841 z M 395,221.81122 v -0.18878 l 0.875,-0.68622 0.875,-0.68622 -0.68622,0.875 -0.68622,0.875 H 395.18878 395 Z M 211.72232,136.25 l -3.8e-4,-15.5 0.15188,7.59379 0.15189,7.5938 -0.1515,7.9062 -0.15151,7.90621 z m 35.49702,1.75 v -13.75 l 0.15444,6.875 0.15444,6.875 -0.15444,6.875 -0.15444,6.875 z m 88.98525,5.25 -10e-4,-8.5 0.16805,4.10045 0.16805,4.10045 -0.16701,4.39955 -0.167,4.39955 -10e-4,-8.5 z m 23.99538,1 10e-4,-7.5 0.17082,3.89785 0.17082,3.89785 -0.1721,3.60215 -0.17209,3.60215 0.002,-7.5 z m 33.02235,-8 -3.8e-4,-15.5 0.15188,7.59379 0.15189,7.5938 -0.1515,7.9062 -0.1515,7.90621 z m 35.31716,12.95833 0.0394,-0.95833 0.26261,0.65625 0.26261,0.65625 -0.30208,0.30208 -0.30209,0.30208 0.0394,-0.95833 z M 237.70249,144.375 236.75,143.25 l 1.125,0.95249 1.125,0.9525 v 0.1725 0.17251 h -0.17251 -0.1725 z M 429.07894,143.5 v -1.25 l 0.2522,0.625 0.25219,0.625 -0.25219,0.625 -0.2522,0.625 z m -253.98147,-1.25 0.0186,-1.5 0.2305,0.88451 0.23049,0.88452 -0.24902,0.61548 -0.24902,0.61549 0.0186,-1.5 z m 125.442,-1.54167 0.0394,-0.95833 0.26261,0.65625 0.26261,0.65625 -0.30208,0.30208 -0.30208,0.30208 0.0394,-0.95833 z M 323.616,140 v -1.75 l 0.22866,0.875 0.22866,0.875 -0.22866,0.875 -0.22866,0.875 z m -37.70975,0.65844 0.65625,-0.26261 0.30208,0.30208 0.30208,0.30209 -0.95833,-0.0395 -0.95833,-0.0394 0.65625,-0.26261 z M 323.616,136 v -1.75 l 0.22866,0.875 0.22866,0.875 -0.22866,0.875 -0.22866,0.875 z m -23.07653,-0.79167 0.0394,-0.95833 0.26261,0.65625 0.26261,0.65625 -0.30208,0.30208 -0.30208,0.30208 0.0394,-0.95833 z m -14.13322,-0.54989 0.65625,-0.26261 0.30208,0.30208 0.30208,0.30209 -0.95833,-0.0395 -0.95833,-0.0394 0.65625,-0.26261 z M 376,133.81122 v -0.18878 l 0.875,-0.68622 0.875,-0.68622 -0.68622,0.875 -0.68622,0.875 H 376.18878 376 Z m -117.59375,-3.65278 0.65625,-0.26261 0.30208,0.30208 0.30208,0.30209 -0.95833,-0.0395 -0.95833,-0.0394 0.65625,-0.26261 z m 53.5,0 0.65625,-0.26261 0.30208,0.30208 0.30208,0.30209 -0.95833,-0.0395 -0.95833,-0.0394 0.65625,-0.26261 z m 28.5,0 0.65625,-0.26261 0.30208,0.30208 0.30208,0.30209 -0.95833,-0.0395 -0.95833,-0.0394 0.65625,-0.26261 z m 19.77636,-4.40844 0.002,-5 0.18422,2.64176 0.18422,2.64176 -0.18658,2.35824 -0.18659,2.35824 0.002,-5 z m -75.0481,3.9035 0.88452,-0.23049 0.61548,0.24902 0.61549,0.24902 -1.5,-0.0186 -1.5,-0.0186 0.88451,-0.23049 z m -110.03704,-1.9035 0.0186,-1.5 0.2305,0.88451 0.23049,0.88452 -0.24902,0.61548 -0.24902,0.61549 0.0186,-1.5 z m 253.98147,-1.25 v -1.25 l 0.2522,0.625 0.25219,0.625 -0.25219,0.625 -0.2522,0.625 z m -57.03947,-0.79166 0.0394,-0.95834 0.26261,0.65625 0.26261,0.65625 -0.30208,0.30209 -0.30208,0.30208 0.0394,-0.95833 z m 56.5,-5 0.0394,-0.95834 0.26261,0.65625 0.26261,0.65625 -0.30208,0.30209 -0.30208,0.30208 0.0394,-0.95833 z m -233.8754,-2.95834 0.004,-3.5 0.19679,1.88615 0.1968,1.88616 -0.20083,1.61384 -0.20083,1.61385 0.004,-3.5 z M 395.43622,48.625 394.75,47.75 l 0.875,0.686222 0.875,0.686222 V 49.311222 49.5 h -0.18878 -0.18878 z M 212.25,45 l 3.47318,-3.5 h 0.25 0.25 L 212.75,45 l -3.47318,3.5 h -0.25 -0.25 z M 388.20249,41.375 387.25,40.25 l 1.125,0.952494 1.125,0.952494 V 42.327494 42.5 h -0.17251 -0.1725 z M 313.40625,8.158443 314.0625,7.8958335 314.36458,8.1979165 314.66667,8.5 313.70833,8.4605265 312.75,8.4210525 Z M 300.375,7.6338975 302.5,7.442502 l 2.125,0.1913955 2.125,0.1913955 h -4.25 -4.25 z"
         id="path46" />
      <path
         style="fill:#93c737;stroke-width:0.5"
         d="m 291.875,261.66886 0.625,-0.25219 0.625,0.25219 0.625,0.25219 h -1.25 -1.25 z m 19.5,0 0.625,-0.25219 0.625,0.25219 0.625,0.25219 H 312 310.75 Z m 5.53125,-0.51042 0.65625,-0.26261 0.30208,0.30208 0.30208,0.30209 -0.95833,-0.0394 -0.95833,-0.0394 0.65625,-0.26261 z M 392,224.75 394.71584,222 h 0.25 0.25 l -2.71584,2.75 -2.71584,2.75 h -0.25 -0.25 z m -187.77332,-73.38047 -0.24193,-0.63046 0.14035,-14.99454 0.14035,-14.99453 0.11728,15.35397 0.11727,15.35396 3.875,0.17041 3.875,0.17041 -3.89069,0.10063 -3.8907,0.10062 z m 46.13633,0.27165 3.613,-0.18451 0.1557,-8.22882 0.15569,-8.22882 -0.0187,8.37549 -0.0187,8.37548 -3.75,0.0378 -3.75,0.0379 3.61301,-0.18451 z m 14.26199,-0.005 1.875,-0.19613 1.875,0.19613 1.875,0.19613 h -3.75 -3.75 z m 64.60077,-0.26859 -0.24283,-0.63283 0.13353,-13.24217 L 329.25,124.25 h 3.5 3.5 l 0.0819,1.25 0.0819,1.25 -0.24168,-1.125 -0.24168,-1.125 H 332.71523 329.5 v 13.47809 13.4781 l 3.625,0.17255 3.625,0.17256 -3.64069,0.0994 -3.64069,0.0993 -0.24284,-0.63283 z m 23.50217,0.006 -0.24068,-0.62719 0.13137,-18.24781 0.13137,-18.24784 8.37548,-0.0187 8.37548,-0.0187 -8.25048,0.15579 L 353,114.52418 v 18.46688 18.46688 l 3.875,0.17041 3.875,0.17041 -3.89069,0.10062 -3.8907,0.10062 -0.24067,-0.62718 z m 19.59789,0.25218 -0.23319,-0.375 3.07868,0.13924 3.07868,0.13923 1.5,0.15575 1.5,0.15575 -4.34549,0.08 -4.34549,0.08 z m 24.41533,0.0129 3.74445,-0.17968 0.14339,-15.3541 0.1434,-15.35409 -0.0112,15.49999 -0.0112,15.5 -3.87664,0.0338 -3.87665,0.0338 3.74445,-0.17969 z M 320.25,149 l 0.90499,-1 h 0.25 0.25 l -0.90499,1 -0.90499,1 h -0.25 -0.25 z M 240,148.81122 v -0.18878 l 0.875,-0.68622 0.875,-0.68622 -0.68622,0.875 -0.68623,0.875 H 240.18878 240 Z m 33.71604,-0.36617 -0.34298,-0.55495 2.43117,-2.32005 2.43118,-2.32005 -2.17604,2.32836 -2.17604,2.32836 0.33785,0.54664 0.33784,0.54664 h -0.25 -0.25 z m -98.17656,-1.23672 0.0395,-0.95833 0.26261,0.65625 0.26261,0.65625 -0.30208,0.30208 -0.30209,0.30208 0.0395,-0.95833 z m 253.558,-5.95833 0.0186,-1.5 0.23049,0.88451 0.2305,0.88452 -0.24902,0.61548 -0.24903,0.61549 0.0185,-1.5 z M 175.13618,139 v -2.25 l 0.21669,1.125 0.21668,1.125 -0.21668,1.125 -0.21669,1.125 z m 53.98882,1.12771 4.375,-0.16665 4.375,0.16665 4.375,0.16665 h -8.75 -8.75 z m 78.52994,-2.37771 0.005,-3 0.20233,1.63395 0.20233,1.63396 -0.20743,1.36604 -0.20744,1.36605 0.005,-3 z m 8.99489,0.25 v -2.75 l 0.2083,1.375 0.20829,1.375 -0.20829,1.375 -0.2083,1.375 z m -89.27483,-2.86862 2.625,-0.18364 2.625,0.18364 2.625,0.18364 H 230 224.75 Z M 175.13618,131 v -2.25 l 0.21668,1.125 0.21669,1.125 -0.21669,1.125 -0.21668,1.125 z m 253.9613,-2.25 0.0186,-1.5 0.23049,0.88451 0.2305,0.88452 -0.24902,0.61548 -0.24903,0.61549 0.0185,-1.5 z m -49.47139,-3 0.0101,-2 0.21745,1.13083 0.21745,1.13083 -0.22754,0.86917 -0.22754,0.86917 0.0101,-2 z m -112.68987,0.375 -0.68622,-0.875 0.875,0.68622 0.875,0.68623 V 126.81122 127 h -0.18878 -0.18877 z m -18.31122,-1.98923 1.875,-0.19613 1.875,0.19613 1.875,0.19613 h -3.75 -3.75 z m -73.08552,-1.42743 0.0395,-0.95834 0.26261,0.65625 0.26261,0.65625 -0.30208,0.30209 -0.30209,0.30208 0.0395,-0.95833 z m 25.58552,-8.58212 6.875,-0.15444 6.875,0.15444 6.875,0.15443 H 208 194.25 Z m 189,0 6.875,-0.15444 6.875,0.15444 6.875,0.15443 H 397 383.25 Z M 391.98292,45.125 389.25,42.25 392.125,44.98292 395,47.71584 V 47.85792 48 h -0.14208 -0.14208 z M 316.90625,8.658443 317.5625,8.3958335 317.86458,8.6979165 318.16667,9 317.20833,8.9605265 316.25,8.9210525 Z M 291.875,8.1688595 l 0.625,-0.252193 0.625,0.252193 0.625,0.252193 h -1.25 -1.25 z m 20.03125,-0.010415 0.65625,-0.2626095 0.30208,0.302083 0.30208,0.3020835 -0.95833,-0.039475 -0.95833,-0.039475 0.65625,-0.2626095 z"
         id="path44" />
      <path
         style="fill:#7b7b7b;stroke-width:0.5"
         d="m 109.59748,251.75 0.0185,-1.5 0.23049,0.88451 0.2305,0.88452 -0.24902,0.61548 -0.24903,0.61549 0.0186,-1.5 z M 111,247.81122 v -0.18878 l 0.875,-0.68622 0.875,-0.68622 -0.68622,0.875 -0.68622,0.875 H 111.18878 111 Z M 463.70249,218.875 462.75,217.75 l 1.125,0.95249 1.125,0.9525 v 0.1725 V 220 h -0.17251 -0.1725 z m -391.042095,-1.74973 13.9104,-0.14122 13.589595,0.14135 13.58961,0.14135 -27.5,-1.4e-4 -27.5,-1.3e-4 z m 64.501575,-1.3e-4 18.91196,-0.13724 18.58804,0.13732 18.58803,0.13732 -37.5,-7e-5 -37.5,-8e-5 z M 154,212.5 118.25,212.23999 153.84549,212.12 189.44098,212 l 0.30902,0.5 0.30901,0.5 -0.1545,-0.12 -0.15451,-0.12 z m -77.590175,-0.37468 12.659825,-0.14264 12.34017,0.1428 12.34018,0.14281 -25,-1.7e-4 -25,-1.6e-4 z M 566,170.31122 v -0.18878 l 0.875,-0.68622 0.875,-0.68622 -0.6862,0.875 -0.68625,0.875 H 566.1888 566 Z M 65.702495,164.875 64.75,163.75 l 1.125,0.95249 1.125,0.9525 v 0.1725 V 166 H 66.827495 66.65499 Z m 455.336955,-30.66667 0.0395,-0.95833 0.2626,0.65625 0.2626,0.65625 -0.30205,0.30208 -0.3021,0.30208 0.0395,-0.95833 z M 16.727859,96.3726 16.487103,95.7452 16.62507,77.7476 16.763037,59.75 16.881518,78.121835 17,96.493675 54.625,96.62505 92.25,96.75642 54.60931,96.87821 16.968615,97 Z M 115.375,96.625185 134,96.48783 l 18.625,0.137355 18.625,0.13736 H 134 96.75 Z M 489.07894,94.5 v -1.25 l 0.2522,0.625 0.25219,0.625 -0.25219,0.625 -0.2522,0.625 z M 134.5,92 96.75,91.740505 134.34549,91.62025 171.94098,91.5 172.25,92 l 0.30901,0.5 -0.1545,-0.12025 L 172.25,92.259495 Z M 21.726908,91.37012 21.485201,90.740245 21.625097,75.24512 21.764993,59.75 21.882497,75.621625 22,91.493245 57.125,91.625055 92.25,91.75686 57.10931,91.87843 21.968615,92 Z M 58.078945,62.5 v -1.25 l 0.252195,0.625 0.252195,0.625 -0.252195,0.625 -0.252195,0.625 z M 555.4362,59.125 554.75,58.25 l 0.875,0.68622 0.875,0.686225 V 59.81122 60 h -0.1888 -0.18875 z M 59.5,58.31122 V 58.122445 L 60.375,57.43622 61.25,56.75 60.56378,57.625 59.877555,58.5 H 59.68878 59.5 Z M 115.20929,46.5 v -9.75 l 0.16346,4.875 0.16346,4.875 -0.16346,4.875 -0.16346,4.875 z M 25.578947,54 V 52.75 L 25.83114,53.375 26.083333,54 25.83114,54.625 25.578947,55.25 Z M 120.1987,44 v -7.25 l 0.17256,3.625 0.17255,3.625 -0.17255,3.625 -0.17256,3.625 z M 23.436222,49.125 22.75,48.25 23.625,48.936222 24.5,49.622444 V 49.811222 50 h -0.188778 -0.188778 z m 87.603248,-18.416667 0.0395,-0.958333 0.26261,0.65625 0.2626,0.65625 -0.30208,0.302083 -0.30208,0.302083 0.0395,-0.958333 z m 13,0 0.0395,-0.958333 0.26261,0.65625 0.26261,0.65625 -0.30208,0.302083 -0.30208,0.302083 0.0395,-0.958333 z M 112.5,26.811222 V 26.622444 L 113.375,25.936222 114.25,25.25 113.56378,26.125 112.87756,27 H 112.68878 112.5 Z M 121.93622,26.125 121.25,25.25 122.125,25.936222 123,26.622444 V 26.811222 27 h -0.18878 -0.18877 z"
         id="path42" />
      <path
         style="fill:#75b800;stroke-width:0.5"
         d="m 292,261.70454 -1.75,-0.20215 -6,-0.79874 -6,-0.79874 -7.5,-1.90682 -7.5,-1.90683 -5.75,-2.24399 -5.75,-2.24399 -3.39709,-1.54064 -3.39709,-1.54064 -5.35291,-3.07101 -5.35291,-3.07101 -4,-2.77195 -4,-2.77194 -5,-4.10496 -5,-4.10496 -5.02612,-5.18809 -5.02611,-5.18808 -3.18619,-4 -3.18619,-4 -3.94489,-6 -3.94489,-6 -3.71276,-7.5 -3.71276,-7.5 -2.70873,-8.25 -2.70873,-8.25 -1.02458,-5 -1.02458,-5 -0.80458,-6 -0.80458,-6 V 135 125.25 l 0.80458,-6 0.80458,-6 1.02458,-5 1.02458,-5 2.70873,-8.25 2.70873,-8.25 3.71276,-7.5 3.71276,-7.5 3.94489,-6 3.94489,-6 3.18619,-4 3.18619,-4 5.02611,-5.188087 5.02612,-5.188087 5,-4.10496 5,-4.10496 4,-2.770832 4,-2.770832 5,-2.882722 5,-2.882722 4.07841,-1.884088 4.07842,-1.884088 5.92158,-2.248127 5.92159,-2.248126 7.25,-1.782477 7.25,-1.782476 5.25,-0.79276 5.25,-0.79276 9.75,-0.28058 9.75,-0.2805795 7.25,0.838618 7.25,0.8386185 4.75,1.00933 4.75,1.00933 5.10629,1.470913 5.1063,1.470914 4.6437,1.760704 4.64371,1.760704 6.5,3.200437 6.5,3.200437 6,3.93586 6,3.93586 5,4.033498 5,4.033498 6.25595,6.435271 6.25596,6.435271 3.64671,4.865125 3.64672,4.86513 2.76792,4.38487 2.76791,4.384875 3.13573,6.25 3.13572,6.25 1.85745,4.719685 1.85745,4.71968 1.72396,5.9895 1.72396,5.989495 1.22159,6.61416 1.22159,6.61416 0.57361,8.05166 0.5736,8.05166 -0.5736,8.05165 -0.57361,8.05166 -1.22159,6.61416 -1.22159,6.61417 -1.72396,5.98949 -1.72396,5.9895 -1.85745,4.71968 -1.85745,4.71969 -3.13572,6.25 -3.13572,6.25 -2.76792,4.38487 -2.76792,4.38487 -3.64671,4.86513 -3.64671,4.86513 -6.25596,6.43527 -6.25596,6.43527 -5,4.0335 -5,4.0335 -6,3.93586 -6,3.93586 -6.5,3.20043 -6.5,3.20044 -4.64371,1.7607 -4.6437,1.76071 -5.1063,1.46374 -5.10629,1.46375 -3.69737,0.81792 -3.69737,0.81793 -5.05263,0.75768 -5.05263,0.75768 -10.75,0.17323 -10.75,0.17323 z M 212,136.5 V 121 h 4.75 4.75 V 117.5 114 H 208 194.5 v 3.5 3.5 h 4.75 4.75 v 15.16666 15.16667 l 0.33333,0.33333 L 204.66666,152 H 208.33333 212 Z m 24.0451,14.81444 1.7951,-0.64167 1.86341,-1.42129 1.86342,-1.42129 -2.23424,-2.23423 -2.23423,-2.23424 -1.44116,1.0262 -1.44117,1.0262 -1.82553,0.34247 -1.82552,0.34247 -1.8003,-0.59415 -1.8003,-0.59415 -0.68023,-1.08038 -0.68023,-1.08038 -0.33575,-1.125 -0.33576,-1.125 h 8.59639 8.5964 l -0.22637,-4.125 -0.22637,-4.125 -1.04054,-2 -1.04054,-2 -1.42079,-1.34847 -1.42079,-1.34848 -1.85894,-0.77652 -1.85894,-0.77653 -3.14106,0.011 -3.14106,0.011 -2.03537,0.92444 -2.03537,0.92445 -1.60681,1.93958 -1.6068,1.93957 -0.79036,2.70086 -0.79036,2.70086 0.21798,4.29914 0.21797,4.29914 1.04377,2 1.04376,2 1.4208,1.34742 1.42079,1.34742 1.75,0.75801 1.75,0.75801 3.75,-0.002 3.75,-0.002 1.7951,-0.64166 z M 225,134.82461 v -0.17539 l 0.55421,-1.5898 0.5542,-1.58981 1.42097,-0.7348 L 228.95034,130 h 1.00131 1.00129 l 1.24944,0.56928 1.24943,0.56927 0.77409,1.63129 0.7741,1.63129 V 134.70056 135 h -5 -5 z m 29.5,7.25504 0.25,-9.67035 1.18039,-0.95465 1.18039,-0.95465 1.56961,0.0159 1.56961,0.0159 0.79333,0.6091 0.79332,0.6091 0.58168,1.09213 L 263,133.93426 V 142.96713 152 h 3.5 3.5 v -10.67136 -10.67136 l -1.16251,-2.20364 -1.16251,-2.20364 -1.96249,-1.11678 -1.96249,-1.11677 -3,-0.006 -3,-0.006 -1.63709,0.99813 -1.63708,0.99813 H 254.23791 254 v -1 -1 h -3.5 -3.5 v 14.0219 14.02191 l 3.625,-0.14691 3.625,-0.1469 0.25,-9.67035 z m 36.5479,9.15345 2.17363,-0.7669 1.18674,-1.1081 1.18674,-1.1081 0.70249,-1.35017 0.7025,-1.35017 v -2.70089 -2.70088 l -1.1316,-1.69895 -1.1316,-1.69894 -1.7434,-0.8386 -1.7434,-0.8386 -4.19317,-0.49219 -4.19316,-0.49218 -0.42418,-0.66922 -0.42418,-0.66921 -0.008,-0.58929 -0.008,-0.58928 0.78572,-0.78572 L 283.57144,130 h 2.51372 2.51372 l 1.74224,0.82674 1.74224,0.82675 2.27291,-2.2729 2.2729,-2.27291 -1.31912,-0.86432 -1.31912,-0.86432 -1.87046,-0.66758 -1.87046,-0.66757 -4,-0.011 -4,-0.0109 -2.02068,0.91787 -2.02069,0.91787 -1.33442,1.58587 -1.33442,1.58587 -0.33078,1.76322 -0.33078,1.76322 0.28803,1.77495 0.28804,1.77494 0.81502,1.24389 0.81502,1.24388 2.08283,0.9098 2.08283,0.90981 3.5,0.35523 3.5,0.35524 0.875,0.45578 0.875,0.45579 v 1.25792 1.25792 l -1.86038,0.77732 -1.86039,0.77732 -2.19239,-0.3005 -2.19239,-0.3005 -1.95502,-1.09879 -1.95502,-1.09878 -2.2422,2.20055 -2.24221,2.20056 v 0.35512 0.35512 l 1.8516,1.16578 1.85161,1.16578 1.52339,0.58696 1.5234,0.58696 4.31214,0.038 4.31214,0.038 2.17362,-0.7669 z m 25.63209,0.1539 2.04601,-0.613 1.86731,-1.8673 1.86731,-1.86732 0.83208,-2.86226 0.83208,-2.86227 -0.23375,-4.85431 -0.23375,-4.85431 -1.35628,-2.31431 -1.35627,-2.31431 -2.06085,-1.3638 -2.06085,-1.36381 h -4.61844 -4.61845 l -2.16807,1.5222 -2.16807,1.5222 -1.25,2.2278 -1.25,2.2278 10e-4,6.25 0.001,6.25 1.11942,2.09603 1.11942,2.09604 1.64456,1.25436 1.64456,1.25437 1.23505,0.49291 1.23506,0.49291 2.94199,0.0317 2.94199,0.0317 2.04601,-0.613 z m -7.16727,-6.87428 -0.98728,-0.98728 -0.31443,-1.25281 -0.31444,-1.2528 0.17676,-4.30413 0.17677,-4.30413 1.18034,-0.95578 1.18035,-0.95579 h 1.40371 1.40371 l 0.80939,0.31059 0.80939,0.31059 0.73151,1.41458 0.7315,1.41458 V 138 v 4.04966 l -0.7315,1.41458 -0.73151,1.41458 -0.80939,0.31059 -0.80939,0.31059 H 311.9591 310.5 Z M 336.5,142.97517 v -9.02483 l 0.73151,-1.41458 0.73151,-1.41458 0.80938,-0.31059 0.80939,-0.31059 h 1.2267 1.2267 l 1.1324,0.74198 1.13241,0.74198 2.65969,-2.69314 2.65969,-2.69315 -0.30162,-0.48803 -0.30162,-0.48804 -1.70863,-0.8108 L 345.59887,124 h -2.69371 -2.69372 l -1.8167,0.92621 -1.81671,0.92621 -0.24842,-0.94998 -0.24843,-0.94998 -3.41559,0.14877 -3.41559,0.14877 -0.13353,13.24217 -0.13353,13.24218 0.24283,0.63282 0.24284,0.63283 h 3.5157 3.51569 z m 24,1.52483 V 137 h 2.41978 2.41978 l 3.61106,7.5 3.61106,7.5 H 376.78084 381 l -0.0149,-0.625 -0.0149,-0.625 -3.89423,-7.57571 -3.89422,-7.5757 1.60949,-0.76751 1.60949,-0.76751 1.31359,-1.72221 1.31359,-1.72221 0.56055,-2.68457 0.56056,-2.68458 -0.80507,-2.76024 -0.80506,-2.76025 -1.61794,-1.65487 -1.61794,-1.65486 -2.02645,-1.07923 -2.02646,-1.07923 -9.25,-0.006 -9.25,-0.006 -0.13136,18.24781 -0.13137,18.24782 0.24067,0.62719 0.24068,0.62718 h 3.76569 3.76569 v -7.5 z m 0,-18.70025 V 121 h 3.51606 3.51606 l 1.69369,0.70767 1.6937,0.70767 0.54024,1.00946 0.54025,1.00946 v 1.50499 1.50499 l -1.20637,1.40288 -1.20638,1.40288 -4.54362,0.17475 L 360.5,130.5995 Z M 400.88222,136.375 401.01445,121 H 405.75722 410.5 V 117.5 114 H 397 383.5 v 3.5 3.5 h 4.75 4.75 v 15.52103 15.52103 l 3.875,-0.14603 3.875,-0.14603 z"
         id="path40" />
      <path
         style="fill:#020202;stroke-width:0.5"
         d="m 114.16646,257.95644 -1.58354,-0.46355 -1.29146,-1.53481 L 110,254.42327 v -2.46019 -2.4602 l 1.75,-1.93704 1.75,-1.93704 V 231.3144 217 H 86.25 59 v -20.65597 -20.65597 l -1.455245,-1.07591 -1.45524,-1.07591 -0.59429,-1.80071 -0.59429,-1.80071 0.31854,-1.69796 0.31854,-1.69795 1.45984,-1.45984 1.45984,-1.45985 1.709455,-0.32069 1.709455,-0.3207 1.436695,0.54439 1.4367,0.54439 1.11049,1.04022 1.11049,1.04022 0.5668,1.71742 0.5668,1.71743 -0.828155,2.16849 -0.828155,2.16849 -1.224135,0.80209 L 64,175.52305 V 194.01152 212.5 H 88.75 113.5 V 192.25 172 h 28.47094 28.47093 l 0.67086,2.375 0.67085,2.375 -26.64179,0.12934 L 118.5,177.00868 V 194.75434 212.5 h 35.45674 35.45675 l 1.56279,2.125 1.56279,2.125 -37.01954,0.1282 -37.01953,0.1282 v 14.31882 14.3188 l 1.78558,1.55299 1.78558,1.55299 0.27899,2.11556 0.27899,2.11556 -0.63061,1.52241 -0.6306,1.52241 -1.30897,0.92486 -1.30896,0.92487 -1.5,0.27216 -1.5,0.27217 z m 352.56476,-37.50068 -1.51878,-0.42931 -1.44977,-1.51322 L 462.31291,217 H 437.40645 412.5 v -0.4015 -0.4015 l 1.54325,-2.0985 1.54326,-2.0985 h 23.24032 23.24032 l 1.61824,-1.71583 1.61823,-1.71583 1.35148,-0.3392 1.35147,-0.3392 1.83227,0.34373 1.83226,0.34374 1.35724,1.45292 1.35723,1.45292 0.3351,1.78621 0.33509,1.78621 -0.90288,1.8149 -0.90288,1.8149 -1.25,0.85815 -1.25,0.85814 -1.25,0.24166 -1.25,0.24166 z m 102.43523,-39.99932 -1.58355,-0.46355 -1.25915,-1.49645 L 565.06455,177 H 499.03228 433 v -0.56699 -0.56699 l 0.57914,-1.93301 L 434.15829,172 h 65.43613 65.43613 l 1.5229,-1.73451 1.52295,-1.73451 1.7085,-0.32052 1.70855,-0.32052 1.2571,0.31553 1.25715,0.31552 1.5453,1.38073 1.5453,1.38072 0.25655,2.27593 0.2565,2.27592 -0.81605,1.57815 -0.8161,1.57814 -1.1146,0.70563 -1.1146,0.70563 -1.5,0.25908 -1.5,0.25908 z M 512.16275,140.27043 510.5755,139.58001 509.73025,138.29 508.885,137 H 473.94249 439 v -2.5 -2.5 h 34.80304 34.80306 l 0.9911,-1.25999 0.9911,-1.25999 1.431,-0.74001 L 513.45035,128 h 1.4509 1.45085 l 1.69165,1.14001 1.6917,1.14 0.6534,1.235 0.6534,1.23499 -0.1982,2.38006 -0.19825,2.38007 -0.9479,1.06394 -0.9479,1.06394 -1.60895,0.681 -1.60895,0.68099 -0.89105,-0.0196 -0.89105,-0.0195 -1.58725,-0.69043 z M 92,116.75 V 96.5 H 54.5 17 V 78.284045 60.068095 l -1.433966,-1.021075 -1.433966,-1.021075 -0.630603,-1.52241 -0.630603,-1.52241 0.277495,-2.06887 0.277494,-2.068875 1.54669,-1.54669 1.54669,-1.54669 h 2.778804 2.778805 l 1.768916,1.930221 1.768916,1.930224 -0.231757,2.794675 -0.231756,2.79468 -1.832795,1.584325 -1.832795,1.584325 0.132216,15.690775 L 21.75,91.75 56.875,91.878375 92,92.006755 V 78.503375 65 H 81.483335 70.966665 l -1.67604,1.67604 -1.67604,1.676045 -1.498895,0.299775 -1.498895,0.29978 -1.720525,-0.47506 -1.720525,-0.47506 -1.17142,-1.246915 -1.171415,-1.246915 -0.22171,-2.673515 -0.221705,-2.67352 1.593445,-1.814835 1.59345,-1.81484 1.70852,-0.32052 1.708515,-0.32052 1.33276,0.334505 1.33276,0.3345 L 69.37947,58.27947 71.1,60 H 84.05 97 v 16 16 h 37.5 37.5 v 0.31699 0.31699 L 171.42085,94.56699 170.84171,96.5 H 133.92085 97 V 114.25 132 h 34.25 34.25 v 2.5 2.5 H 128.75 92 Z M 480.16274,100.27043 478.57547,99.58001 477.73023,98.290005 476.88499,97 h -21.45487 -21.45487 l -0.48364,-1.27205 -0.48363,-1.272055 -0.3082,-1.227945 L 432.39159,92 h 22.21017 22.21018 l 1.09419,-1.47998 1.0942,-1.47998 1.93572,-0.579955 1.93572,-0.579955 1.79775,0.59331 1.79775,0.59331 1.26636,1.50499 L 489,92.076725 v 2.39421 2.394205 l -1.08395,1.37802 -1.08395,1.37802 -1.64999,0.68941 -1.64999,0.68941 -0.89106,-0.0195 -0.89106,-0.0196 -1.58726,-0.69042 z m 76.97651,-40.256295 -1.6108,-0.982125 -0.6345,-1.016005 L 554.25945,57 H 484.47597 414.6925 L 413.09625,54.73538 411.5,52.470765 V 52.23538 52 h 71.2 71.2 l 1.71055,-1.710565 1.7106,-1.710566 1.7586,-0.329917 1.7586,-0.329916 1.81985,0.760394 1.8199,0.760394 1.0091,1.655086 1.00905,1.65509 v 1.75 1.75 l -1.00905,1.65509 -1.0091,1.655085 -1.723,0.719915 L 561.0321,61 559.89105,60.998 558.75,60.996 557.13925,60.013875 Z M 115.5,46.511527 V 37.023053 L 114.22445,36.187277 112.94889,35.3515 112.22445,33.95058 111.5,32.54966 v -2.032172 -2.032173 l 1.71158,-1.867658 1.71158,-1.867657 h 2.82684 2.82684 l 1.71158,1.867657 L 124,28.485315 v 2.032173 2.032172 l -0.72445,1.40092 -0.72444,1.40092 -1.27556,0.835777 L 120,37.023053 v 6.98527 6.985272 l 37.04059,0.1282 L 194.08118,51.25 192.26769,53.625 190.4542,56 H 152.9771 115.5 Z"
         id="path38" />
    </g>
  </g>
</svg>
